<svg xmlns="http://www.w3.org/2000/svg" xmlns:xlink="http://www.w3.org/1999/xlink" width="1920" zoomAndPan="magnify" viewBox="0 0 1440 1439.999935" height="1920" preserveAspectRatio="xMidYMid meet" version="1.0"><defs><clipPath id="d856573c7c"><path d="M 35.179688 10.808594 L 1404.679688 10.808594 L 1404.679688 1440 L 35.179688 1440 Z M 35.179688 10.808594 " clip-rule="nonzero"/></clipPath><clipPath id="555ea982b0"><path d="M 35.179688 10.808594 L 1404.679688 10.808594 L 1404.679688 1440 L 35.179688 1440 Z M 35.179688 10.808594 " clip-rule="nonzero"/></clipPath></defs><path fill="#ffffff" d="M 147.648438 1306.117188 C 162.195312 1162.769531 181.464844 982.390625 197.316406 837.035156 C 218.160156 645.902344 233.03125 515.480469 293.5 398.902344 C 353.96875 282.324219 460.035156 179.644531 583.035156 115.789062 C 706.035156 51.992188 845.914062 27.011719 944.8125 27.175781 C 1043.714844 27.394531 1101.628906 52.75 1145 83.320312 C 1188.371094 113.890625 1217.25 149.617188 1228.917969 181.21875 C 1240.589844 212.875 1235 240.40625 1216.761719 273.148438 C 1198.523438 305.886719 1167.582031 343.789062 1157.050781 359.15625 C 1146.519531 374.46875 1156.398438 367.246094 1174.148438 453.6875 C 1191.898438 540.183594 1217.519531 720.402344 1238.417969 903.820312 C 1254.648438 1046.40625 1273.484375 1278.097656 1277.554688 1412.648438 C 1266.96875 1410.207031 1256.601562 1408.414062 1243.195312 1406.1875 L 1198.957031 1398.3125 C 1188.914062 1396.035156 1184.355469 1393.425781 1171.976562 1391.472656 L 1133.386719 1387.398438 C 1121.335938 1386.75 1114.007812 1383.871094 1101.578125 1382.296875 L 1068.03125 1378.929688 C 1054.679688 1378.765625 1044.851562 1376.269531 1031.28125 1376.105469 C 1008.917969 1375.835938 1005.824219 1370.730469 983.246094 1370.460938 L 959.957031 1368.886719 C 947.855469 1367.09375 933.578125 1368.503906 925.652344 1366.984375 C 910.941406 1364.214844 888.144531 1363.507812 873.328125 1362.367188 L 830.609375 1359.164062 C 807.429688 1358.894531 779.203125 1353.789062 757.113281 1353.519531 C 739.796875 1353.300781 744.84375 1354.386719 728.125 1351.945312 C 712.875 1349.71875 702.941406 1351.347656 688.445312 1350.695312 L 652.511719 1347.871094 L 494.230469 1347.871094 C 477.078125 1347.871094 402.605469 1346.785156 387.515625 1349.121094 L 375.898438 1351.292969 C 358.746094 1353.03125 354.890625 1356.667969 345.503906 1358.566406 C 333.941406 1360.957031 326.773438 1364.648438 316.136719 1368.558594 C 298.386719 1375.074219 282.972656 1385.988281 270.921875 1399.78125 C 256.375 1401.789062 233.25 1407.925781 220.820312 1412.921875 C 199.757812 1421.28125 182.390625 1427.527344 167.40625 1439.09375 C 167.296875 1438.0625 167.136719 1436.976562 166.972656 1435.890625 C 166.105469 1430.132812 165.128906 1428.234375 165.128906 1422.964844 C 165.128906 1368.449219 167.625 1348.304688 147.703125 1306.277344 Z M 147.648438 1306.117188 " fill-opacity="1" fill-rule="evenodd"/><path stroke-linecap="round" transform="matrix(5.428061, 0, 0, 5.42982, 52.549422, 15.610452)" fill="none" stroke-linejoin="round" d="M 85.070341 59.480359 C 94.190339 67.349951 103.300263 75.220261 120.56011 78.269827 C 137.819957 81.320112 163.219653 79.549652 181.85977 72.500184 C 200.489812 65.449997 212.360275 53.110012 216.789659 42.710266 C 221.209688 32.309802 218.200154 23.830153 209.960275 16.85982 C 201.719677 9.890207 188.270324 4.419837 167.179832 3.790356 C 146.090061 3.170228 117.380021 7.390268 94.499785 20.289952 C 71.620268 33.190356 54.579911 54.769683 43.470108 81.099974 C 32.360305 107.430264 27.170261 138.530222 23.920366 167.800008 C 20.669752 197.069795 19.349932 224.530273 18.030112 251.979961 " stroke="#000000" stroke-width="7.47" stroke-opacity="1" stroke-miterlimit="4"/><g clip-path="url(#d856573c7c)"><path stroke-linecap="butt" transform="matrix(5.428061, 0, 0, 5.42982, 52.549422, 15.610452)" fill="none" stroke-linejoin="miter" d="M 226.009688 247.900205 C 224.170288 218.019642 222.330168 188.129726 219.450168 162.390069 C 216.570169 136.649692 212.659645 115.060293 209.439975 98.970039 C 206.229661 82.879786 203.720276 72.310261 201.210172 61.729944 " stroke="#000000" stroke-width="7.47" stroke-opacity="1" stroke-miterlimit="22.93"/></g><path fill="#000000" d="M 643.882812 274.667969 C 654.792969 293.835938 679.164062 300.511719 698.324219 289.597656 C 717.488281 278.683594 724.164062 254.304688 713.253906 235.136719 C 702.34375 215.972656 677.96875 209.292969 658.808594 220.207031 C 639.648438 231.121094 632.972656 255.5 643.882812 274.667969 Z M 659.785156 276.785156 C 661.957031 280.585938 666.789062 281.890625 670.535156 279.71875 C 674.332031 277.546875 675.636719 272.710938 673.464844 268.964844 C 671.292969 265.164062 666.464844 263.863281 662.71875 266.035156 C 658.917969 268.207031 657.617188 272.984375 659.785156 276.785156 Z M 675.3125 248.875 C 678.894531 255.175781 686.925781 257.398438 693.222656 253.816406 C 699.519531 250.234375 701.746094 242.195312 698.164062 235.898438 C 694.582031 229.601562 686.546875 227.375 680.25 231.011719 C 673.953125 234.59375 671.726562 242.632812 675.363281 248.929688 Z M 675.3125 248.875 " fill-opacity="1" fill-rule="evenodd"/><path fill="#000000" d="M 1030.304688 244.859375 C 1041.214844 264.023438 1065.589844 270.703125 1084.75 259.789062 C 1103.910156 248.875 1110.585938 224.496094 1099.675781 205.328125 C 1088.765625 186.160156 1064.394531 179.484375 1045.234375 190.394531 C 1026.070312 201.308594 1019.394531 225.691406 1030.304688 244.859375 Z M 1046.210938 246.976562 C 1048.382812 250.777344 1053.210938 252.078125 1056.957031 249.90625 C 1060.757812 247.734375 1062.058594 242.902344 1059.890625 239.15625 C 1057.71875 235.355469 1052.886719 234.050781 1049.140625 236.222656 C 1045.339844 238.394531 1044.039062 243.175781 1046.210938 246.976562 Z M 1061.734375 219.066406 C 1065.316406 225.363281 1073.351562 227.589844 1079.648438 223.953125 C 1085.945312 220.367188 1088.167969 212.332031 1084.53125 206.035156 C 1080.949219 199.734375 1072.917969 197.507812 1066.621094 201.148438 C 1060.324219 204.730469 1058.097656 212.765625 1061.679688 219.066406 Z M 1061.734375 219.066406 " fill-opacity="1" fill-rule="evenodd"/><path stroke-linecap="round" transform="matrix(5.428061, 0, 0, 5.42982, 52.549422, 15.610452)" fill="none" stroke-linejoin="round" d="M 216.219704 117.470306 C 224.399853 121.050074 232.569926 124.639914 237.590135 129.610296 C 242.610344 134.579959 244.469894 140.940234 236.550256 145.119988 C 228.629897 149.299742 210.93035 151.319836 193.220008 153.329859 " stroke="#000000" stroke-width="7.81" stroke-opacity="1" stroke-miterlimit="4"/><g clip-path="url(#555ea982b0)"><path stroke-linecap="butt" transform="matrix(5.428061, 0, 0, 5.42982, 52.549422, 15.610452)" fill="none" stroke-linejoin="miter" d="M 61.95982 119.99974 L 193.889993 114.120028 L 206.470021 204.67968 L 48.940092 209.380285 L 51.540152 120.389659 Z M 61.95982 119.99974 " stroke="#000000" stroke-width="6.94" stroke-opacity="1" stroke-miterlimit="22.93"/></g><path stroke-linecap="round" transform="matrix(5.428061, 0, 0, 5.42982, 52.549422, 15.610452)" fill="none" stroke-linejoin="round" d="M 29.609841 116.840105 C 21.429692 120.429945 13.260338 124.009714 8.240129 128.980096 C 3.21992 133.949758 1.35965 140.310034 9.280009 144.49986 C 17.199648 148.680333 34.899915 150.690355 52.610256 152.70973 " stroke="#000000" stroke-width="7.81" stroke-opacity="1" stroke-miterlimit="4"/><path fill="#000000" d="M 316.351562 804.128906 C 324.605469 792.726562 338.175781 788.492188 349.898438 791.859375 C 361.625 795.222656 371.449219 806.246094 376.714844 820.148438 C 382.03125 834.101562 382.792969 850.988281 379.046875 863.53125 C 375.300781 876.074219 367.050781 884.328125 354.132812 887.855469 C 341.214844 891.386719 323.574219 890.136719 314.183594 883.457031 C 304.738281 876.78125 303.542969 864.671875 304.355469 849.304688 C 305.171875 833.992188 308.101562 815.476562 316.300781 804.074219 Z M 316.351562 804.128906 " fill-opacity="1" fill-rule="evenodd"/><path fill="#000000" d="M 1139.03125 810.753906 C 1130.78125 799.351562 1117.210938 795.117188 1105.484375 798.480469 C 1093.761719 801.847656 1083.988281 812.871094 1078.671875 826.769531 C 1073.351562 840.726562 1072.589844 857.613281 1076.335938 870.15625 C 1080.082031 882.699219 1088.332031 890.953125 1101.25 894.480469 C 1114.167969 898.011719 1131.8125 896.761719 1141.203125 890.082031 C 1150.644531 883.40625 1151.839844 871.242188 1151.027344 855.929688 C 1150.210938 840.617188 1147.28125 822.101562 1139.085938 810.699219 Z M 1139.03125 810.753906 " fill-opacity="1" fill-rule="evenodd"/><path fill="#e41221" d="M 853.078125 793.757812 C 863.011719 793.757812 864.75 807.332031 864.75 818.191406 C 864.75 820.796875 864.640625 823.351562 864.585938 825.140625 C 864.585938 825.140625 864.585938 825.195312 864.585938 825.195312 C 862.957031 845.125 852.429688 869.285156 841.246094 885.902344 C 841.191406 886.011719 841.082031 886.121094 841.082031 886.121094 C 841.082031 886.121094 841.082031 886.171875 841.082031 886.171875 L 840.867188 886.5 C 840.867188 886.5 840.757812 886.769531 840.703125 886.878906 C 829.414062 902.953125 813.402344 920.4375 798.90625 933.683594 C 798.09375 934.390625 797.496094 934.933594 796.574219 935.695312 C 795.652344 936.507812 794.511719 937.484375 793.535156 938.355469 C 788.324219 942.804688 782.136719 947.3125 776.4375 947.3125 C 774.320312 947.3125 772.203125 946.660156 770.246094 945.085938 C 762.429688 937.867188 770.84375 925.8125 776.707031 917.503906 C 777.304688 916.6875 777.902344 915.820312 778.390625 915.113281 C 782.730469 909.25 787.074219 903.601562 791.472656 898.011719 C 795.8125 892.472656 800.101562 886.933594 804.28125 881.179688 C 806.179688 878.625 807.972656 876.074219 809.816406 873.414062 L 809.765625 873.414062 L 809.980469 873.25 L 835.058594 827.207031 L 834.894531 827.3125 L 835.167969 827.097656 C 835.925781 824.925781 836.742188 822.589844 837.5 820.203125 L 837.445312 820.203125 L 837.609375 819.929688 C 838.152344 818.300781 838.695312 816.347656 839.183594 814.5 C 839.78125 812.328125 840.378906 810.101562 841.082031 807.929688 C 843.417969 800.597656 846.675781 794.355469 852.917969 793.648438 C 852.917969 793.648438 853.132812 793.648438 853.296875 793.648438 Z M 845.210938 749.449219 C 842.605469 749.449219 839.945312 749.667969 837.121094 749.992188 C 825.503906 751.839844 817.144531 755.316406 807.105469 761.289062 C 796.628906 767.964844 789.027344 774.699219 780.667969 783.765625 C 763.515625 803.75 752.988281 822.425781 740.449219 844.960938 C 739.035156 847.296875 737.570312 848.816406 735.238281 850.226562 C 732.847656 851.53125 730.839844 852.074219 728.070312 852.128906 C 725.359375 852.074219 723.347656 851.476562 720.960938 850.121094 C 718.625 848.652344 717.160156 847.132812 715.804688 844.742188 C 714.988281 843.332031 714.339844 842.082031 713.523438 840.617188 C 713.523438 840.617188 713.523438 840.507812 713.523438 840.507812 C 712.925781 839.476562 712.4375 838.554688 711.839844 837.523438 C 711.191406 836.492188 710.539062 835.40625 709.941406 834.425781 C 696.535156 812.4375 682.746094 796.527344 663.476562 779.207031 C 650.613281 768.347656 638.617188 760.691406 622.496094 755.421875 C 616.089844 753.523438 610.71875 752.546875 604.3125 752.546875 C 603.605469 752.546875 602.792969 752.546875 602.03125 752.546875 C 594.976562 752.980469 589.925781 754.335938 583.632812 757.648438 C 577.117188 761.34375 573.046875 765.195312 568.648438 771.222656 C 563.980469 777.957031 561.375 783.929688 558.988281 791.640625 C 554.101562 809.234375 553.613281 824.4375 555.949219 842.410156 C 560.074219 868.148438 566.804688 886.226562 580.046875 908.542969 C 586.128906 918.316406 592.207031 926.679688 599.480469 935.53125 C 607.785156 945.414062 616.089844 954.101562 625.425781 963.003906 C 629.226562 966.425781 639.214844 974.570312 651.699219 984.726562 C 672.8125 1001.882812 701.203125 1024.90625 719.441406 1041.359375 C 729.101562 1050.046875 735.726562 1056.722656 737.136719 1059.710938 C 737.246094 1059.980469 737.515625 1060.144531 737.789062 1060.144531 C 737.789062 1060.144531 737.894531 1060.144531 737.949219 1060.144531 C 738.167969 1060.144531 738.332031 1059.980469 738.4375 1059.765625 C 742.402344 1052.707031 771.496094 1020.019531 799.613281 988.363281 C 822.84375 962.246094 845.371094 936.886719 852.101562 927.820312 C 854.109375 924.886719 855.957031 922.117188 857.910156 919.132812 C 871.316406 898.445312 880.871094 881.234375 888.632812 857.503906 C 896.179688 831.332031 897.808594 808.960938 889.285156 782.679688 C 885.917969 773.613281 882.175781 766.445312 875.007812 759.765625 C 869.582031 755.097656 864.695312 752.761719 857.910156 750.972656 C 853.515625 749.9375 849.550781 749.449219 845.535156 749.449219 Z M 845.210938 749.449219 " fill-opacity="1" fill-rule="nonzero"/><path fill="#fa3d4a" d="M 836.6875 819.820312 C 830.5 838.824219 824.527344 850.664062 813.074219 866.953125 C 813.074219 867.007812 812.859375 867.332031 812.859375 867.386719 C 812.695312 867.496094 812.585938 867.605469 812.476562 867.765625 C 801.457031 884.597656 789.300781 898.664062 777.519531 914.679688 C 772.363281 922.226562 760.152344 937.050781 769.488281 945.628906 C 779.203125 953.449219 792.175781 940.144531 799.179688 934.171875 C 813.726562 920.871094 829.738281 903.332031 841.082031 887.207031 C 841.191406 887.042969 841.300781 886.824219 841.355469 886.664062 C 841.464844 886.554688 841.625 886.390625 841.734375 886.28125 C 852.972656 869.558594 863.609375 845.234375 865.238281 825.140625 C 865.617188 816.183594 866.703125 792.507812 852.589844 792.945312 C 841.898438 794.082031 839.617188 810.425781 836.632812 819.765625 Z M 836.6875 819.820312 " fill-opacity="1" fill-rule="nonzero"/><path fill="#fa3d4a" d="M 769.488281 945.738281 C 807.753906 901.378906 857.207031 857.9375 852.644531 793.050781 Z M 769.488281 945.738281 Z M 769.488281 945.738281 " fill-opacity="1" fill-rule="nonzero"/><path fill="#000000" d="M 876.421875 931.839844 C 891.890625 909.414062 902.421875 890.789062 911.378906 864.78125 C 921.09375 832.960938 922.832031 806.355469 912.789062 774.265625 C 907.847656 760.691406 902.367188 750.808594 891.835938 740.761719 C 883.042969 733.105469 875.171875 729.035156 863.9375 725.941406 C 853.1875 723.332031 844.558594 722.898438 833.59375 724.203125 C 818.015625 726.535156 806.832031 730.878906 793.316406 738.808594 C 780.398438 746.84375 771.117188 754.828125 760.855469 765.957031 C 741.96875 787.675781 730.621094 807.117188 716.726562 831.710938 C 717.976562 829.539062 719.386719 828.128906 721.558594 826.824219 C 723.785156 825.578125 725.683594 825.089844 728.179688 825.035156 C 730.675781 825.089844 732.578125 825.632812 734.75 826.878906 C 736.917969 828.238281 738.222656 829.648438 739.46875 831.820312 C 739.46875 831.820312 737.679688 828.507812 736.863281 827.152344 C 736.214844 826.011719 735.5625 824.925781 734.855469 823.785156 C 734.207031 822.589844 733.554688 821.394531 732.847656 820.253906 C 717.921875 795.875 702.015625 777.957031 680.523438 758.898438 C 664.402344 745.488281 649.800781 736.582031 629.660156 730.175781 C 619.347656 727.242188 611.042969 726.046875 600.242188 726.535156 C 588.949219 727.351562 580.753906 729.6875 570.710938 735.0625 C 560.617188 740.980469 554.210938 746.953125 547.316406 756.402344 C 541.019531 765.6875 537.4375 773.777344 534.234375 784.472656 C 528.480469 805.976562 527.992188 824.054688 531.085938 845.992188 C 536.136719 875.207031 544.058594 895.839844 559.691406 920.925781 C 566.585938 931.566406 573.535156 940.636719 581.839844 950.191406 C 591.066406 960.5625 600.1875 969.519531 610.554688 978.699219 C 624.9375 990.644531 715.207031 1060.253906 735.34375 1062.316406 C 736.160156 1062.316406 736.648438 1062.152344 737.191406 1061.503906 C 737.679688 1060.851562 737.679688 1060.308594 737.515625 1059.492188 C 733.121094 1047.765625 639.214844 974.625 625.480469 962.300781 C 616.199219 953.394531 607.894531 944.761719 599.589844 934.878906 C 592.316406 926.082031 586.234375 917.722656 580.15625 908 C 566.914062 885.792969 560.234375 867.820312 556.109375 842.191406 C 553.832031 824.273438 554.265625 809.234375 559.148438 791.75 C 561.539062 784.09375 564.144531 778.175781 568.757812 771.550781 C 573.101562 765.632812 577.117188 761.886719 583.523438 758.191406 C 589.710938 754.933594 594.703125 753.632812 601.597656 753.199219 C 608.980469 752.925781 614.734375 753.902344 621.84375 755.964844 C 637.910156 761.234375 649.800781 768.78125 662.609375 779.585938 C 681.824219 796.90625 695.613281 812.707031 708.964844 834.644531 C 709.5625 835.675781 710.214844 836.707031 710.863281 837.738281 C 711.40625 838.773438 711.949219 839.804688 712.546875 840.78125 C 713.308594 842.191406 714.121094 843.550781 714.882812 844.960938 C 716.292969 847.460938 717.8125 849.089844 720.253906 850.609375 C 722.753906 852.019531 724.867188 852.617188 727.746094 852.726562 C 730.621094 852.726562 732.792969 852.128906 735.289062 850.71875 C 737.734375 849.195312 739.308594 847.621094 740.773438 845.179688 C 753.367188 822.644531 763.84375 804.019531 780.941406 784.09375 C 789.246094 775.027344 796.789062 768.347656 807.210938 761.722656 C 817.144531 755.75 825.449219 752.328125 836.957031 750.535156 C 844.230469 749.613281 850.039062 749.832031 857.203125 751.460938 C 863.9375 753.25 868.710938 755.53125 874.03125 760.09375 C 881.089844 766.71875 884.78125 773.722656 888.144531 782.734375 C 896.613281 808.851562 894.984375 831.0625 887.492188 857.125 C 879.785156 880.796875 870.234375 897.902344 856.824219 918.589844 C 854.925781 921.46875 852.972656 924.34375 851.015625 927.222656 C 835.765625 947.746094 739.960938 1051.242188 736.863281 1060.089844 C 737.136719 1060.035156 737.40625 1060.089844 737.570312 1060.308594 C 737.84375 1060.851562 737.351562 1061.175781 737.082031 1061.613281 C 736.539062 1062.371094 736.972656 1062.914062 737.789062 1063.242188 C 738.492188 1063.457031 739.035156 1063.292969 739.632812 1062.96875 C 770.410156 1053.25 851.722656 963.386719 869.851562 940.636719 C 871.96875 937.703125 874.085938 934.769531 876.148438 931.785156 Z M 876.421875 931.839844 " fill-opacity="1" fill-rule="nonzero"/></svg>